# xmcd
#
# Track frame offsets:
#	150
#	67228
#	99233
#	187868
#	227743
#	249002
#
# Disc length: 3807 seconds
#
# Revision: 1
# Processed by: cddbd v1.5.2PL0 Copyright (c) Steve Scherf et al.
# Submitted via: audiograbber 1.83.01
#
DISCID=410edd06
DTITLE=Grateful Dead - 79-12-31 Oakland Auditorium Arena, Oakland CA
DYEAR=1900
DGENRE=
TTITLE0=Uncle John's Band
TTITLE1=Drums
TTITLE2=Not Fade Away
TTITLE3=Stella Blue
TTITLE4=Sunshine Daydream
TTITLE5=Good Lovin'
EXTD=
EXTT0=
EXTT1=
EXTT2=
EXTT3=
EXTT4=
EXTT5=
PLAYORDER=
